<?xml version="1.0" encoding="utf-8"?>
<!-- Generator: Adobe Illustrator 21.0.0, SVG Export Plug-In . SVG Version: 6.00 Build 0)  -->
<svg version="1.1" id="Layer_1" xmlns="http://www.w3.org/2000/svg" xmlns:xlink="http://www.w3.org/1999/xlink" x="0px" y="0px"
	 width="2800px" height="1800px" viewBox="0 0 2800 1800" style="enable-background:new 0 0 2800 1800;" xml:space="preserve">
<style type="text/css">
	.st0{fill:#7989A0;}
	.st1{fill:#A7B4CB;}
	.st2{fill:#8FA1BC;}
	.st3{fill:#BCC7D8;}
	.st4{fill:#556B82;}
	.st5{fill:#8697AA;}
	.st6{fill:#EA9E25;}
	.st7{fill:#CB852A;}
	.st8{fill:#F9F5E5;}
	.st9{fill:#DDD7C5;}
	.st10{fill:#40566B;}
	.st11{fill:#BFB69F;}
	.st12{fill:#F8C69B;}
	.st13{fill:#DBA77F;}
	.st14{fill:#CC4544;}
	.st15{fill:#A92D2D;}
	.st16{fill:#8E6E54;}
	.st17{fill:#725539;}
	.st18{fill:#627FB6;}
	.st19{fill:#9B7F6A;}
	.st20{fill:#513823;}
	.st21{fill:#E96056;}
	.st22{fill:#CC992B;}
	.st23{fill:#EDB422;}
	.st24{fill:#CCC4B0;}
	.st25{fill:#4D4459;}
	.st26{fill:#2C2635;}
	.st27{fill:#736B7C;}
	.st28{fill:#5E5569;}
	.st29{fill:#FFFFFF;}
	.st30{fill:#766C7F;}
	.st31{fill:#CA962B;}
	.st32{fill:#754F2E;}
	.st33{fill:#FEE2CC;}
	.st34{fill:#FFD13F;}
	.st35{fill:#FEE292;}
	.st36{fill:#F8C045;}
</style>
<rect y="-0.76904" class="st0" width="2800" height="1801.53809"/>
<path class="st1" d="M2216.88062,939.71344c0,240.8913-101.28027,458.11298-263.57996,611.40472H798.52716
	c-162.2998-153.29175-263.58008-370.51343-263.58008-611.40472c0-464.45554,376.51892-840.97449,840.95905-840.97449
	C1840.36169,98.73898,2216.88062,475.2579,2216.88062,939.71344z"/>
<g>
	<path class="st2" d="M2050.92651,966.93262h-73.00635V904.3515h-87.66138v62.58112h-73.00635v108.65588h-347.4646v176.68604
		h-46.9292V834.01715h-399.38867v220.37152h-80.21021V927.008l-256.203-121.26074v248.64142v367.80188
		c32.75769,46.67749,70.12891,89.88086,111.47034,128.92761h1154.77356c35.62451-33.64734,68.30688-70.37671,97.62585-109.75842
		V966.93262z"/>
	<rect x="1069.83923" y="876.94452" class="st3" width="42.35355" height="42.35355"/>
	<rect x="1069.83923" y="1054.70776" class="st1" width="42.35355" height="42.35355"/>
	<rect x="710.01538" y="933.04938" class="st1" width="31.17582" height="31.17582"/>
	<rect x="765.87671" y="933.04938" class="st1" width="31.17582" height="31.17582"/>
	<rect x="821.73798" y="933.04938" class="st1" width="31.17582" height="31.17582"/>
	<rect x="765.87671" y="1048.85022" class="st1" width="31.17582" height="31.17582"/>
	<rect x="877.5993" y="1048.85022" class="st1" width="31.17582" height="31.17582"/>
	<rect x="1984.1344" y="1007.42712" class="st3" width="31.17582" height="31.17582"/>
	<rect x="1984.1344" y="1080.77734" class="st1" width="31.17582" height="31.17582"/>
	<rect x="1918.50171" y="1080.77734" class="st3" width="31.17582" height="31.17582"/>
	<rect x="1846.7616" y="1007.42712" class="st1" width="31.17582" height="31.17582"/>
	<rect x="1153.70435" y="876.94452" class="st1" width="42.35355" height="42.35355"/>
	<rect x="1153.70435" y="970.28748" class="st1" width="42.35355" height="42.35355"/>
	<rect x="1237.56946" y="876.94452" class="st1" width="42.35355" height="42.35355"/>
</g>
<g>
	<path class="st4" d="M1416.95154,1055.59656H708.41632c-15.04877,0-27.24823,12.19946-27.24823,27.24829v115.74329
		c0,15.04895,12.19946,27.24829,27.24823,27.24829h708.53522c15.04883,0,27.24829-12.19934,27.24829-27.24829v-115.74329
		C1444.19983,1067.79602,1432.00037,1055.59656,1416.95154,1055.59656z"/>
	<g>
		<g>
			<rect x="759.36157" y="1089.43494" class="st4" width="38.8368" height="425.69913"/>
			<rect x="742.58337" y="1089.43494" class="st0" width="33.55645" height="425.69913"/>
			<rect x="742.58337" y="1089.43494" class="st4" width="33.55645" height="161.01442"/>
		</g>
		<g>
			<rect x="1288.1405" y="1089.43494" class="st4" width="38.8368" height="425.69913"/>
			<rect x="1271.3623" y="1089.43494" class="st0" width="33.55645" height="425.69913"/>
			<rect x="1271.3623" y="1089.43494" class="st4" width="33.55645" height="161.01442"/>
		</g>
	</g>
	<path class="st0" d="M1378.20239,1055.59656H669.66724c-15.04883,0-27.24829,12.19946-27.24829,27.24829v115.74329
		c0,15.04895,12.19946,27.24829,27.24829,27.24829h708.53516c15.04883,0,27.24829-12.19934,27.24829-27.24829v-115.74329
		C1405.45068,1067.79602,1393.25122,1055.59656,1378.20239,1055.59656z"/>
	<g>
		<g>
			<g>
				<polygon class="st5" points="879.84143,1055.59656 826.18823,1055.59656 890.40283,1225.83643 944.05597,1225.83643 				"/>
			</g>
			<g>
				<polygon class="st5" points="1018.98798,1055.59656 965.33484,1055.59656 1029.54956,1225.83643 1083.20276,1225.83643 				"/>
			</g>
			<g>
				<polygon class="st5" points="751.25623,1225.83643 804.90936,1225.83643 740.69482,1055.59656 687.04169,1055.59656 				"/>
			</g>
			<g>
				<polygon class="st5" points="1297.28125,1055.59656 1243.62817,1055.59656 1307.84265,1225.83643 1361.49585,1225.83643 				"/>
			</g>
			<g>
				<polygon class="st5" points="1158.13477,1055.59656 1104.48157,1055.59656 1168.69617,1225.83643 1222.34924,1225.83643 				"/>
			</g>
		</g>
	</g>
</g>
<g>
	<polygon class="st0" points="1879.36914,1128.55713 1970.91785,1128.55713 2061.87207,1430.46875 1788.41492,1430.46875 	"/>
	<polygon class="st4" points="1970.91772,1128.55725 1937.79175,1128.55725 2012.23669,1430.46887 2061.87207,1430.46887 	"/>
	<path class="st0" d="M2062.03198,1484.41418H1788.255c-21.57898,0-39.07227-17.49316-39.07227-39.07214v-0.00012
		c0-21.57898,17.49329-39.07227,39.07227-39.07227h273.77698c21.5791,0,39.07227,17.49329,39.07227,39.07227v0.00012
		C2101.10425,1466.92102,2083.61108,1484.41418,2062.03198,1484.41418z"/>
	<path class="st4" d="M2062.03198,1406.26953h-45.17993c21.5791,0,39.07227,17.49329,39.07227,39.07239l0,0
		c0,21.57898-17.49316,39.07227-39.07227,39.07227h45.17993c21.5791,0,39.07202-17.49329,39.07202-39.07227l0,0
		C2101.104,1423.76282,2083.61108,1406.26953,2062.03198,1406.26953z"/>
	<g>
		<polygon class="st3" points="2040.71411,1360.23767 2024.73914,1307.21069 1825.54785,1307.21069 1809.57288,1360.23767 		"/>
		<polygon class="st3" points="1860.20483,1192.17065 1844.22986,1245.19775 2006.05701,1245.19775 1990.08203,1192.17065 		"/>
	</g>
	<g>
		<polygon class="st1" points="2040.71387,1360.23767 2024.73889,1307.21069 1981.84375,1307.21069 1994.91919,1360.23767 		"/>
		<polygon class="st1" points="1953.47754,1192.17065 1966.55273,1245.19775 2006.05701,1245.19775 1990.08203,1192.17065 		"/>
	</g>
</g>
<g>
	<polygon class="st6" points="1690.79199,1101.3186 1782.3407,1101.3186 1873.29492,1403.23022 1599.83765,1403.23022 	"/>
	<polygon class="st7" points="1782.34058,1101.31873 1749.21448,1101.31873 1823.65955,1403.23035 1873.2948,1403.23035 	"/>
	<path class="st6" d="M1873.45483,1457.17566h-273.7771c-21.57898,0-39.07214-17.49316-39.07214-39.07214v-0.00012
		c0-21.57898,17.49316-39.07227,39.07214-39.07227h273.7771c21.57898,0,39.07227,17.49329,39.07227,39.07227v0.00012
		C1912.5271,1439.6825,1895.03381,1457.17566,1873.45483,1457.17566z"/>
	<path class="st7" d="M1873.45483,1379.03101h-45.18005c21.5791,0,39.07239,17.49329,39.07239,39.07239l0,0
		c0,21.5791-17.49329,39.07227-39.07239,39.07227h45.18005c21.5791,0,39.07202-17.49316,39.07202-39.07227l0,0
		C1912.52686,1396.52429,1895.03394,1379.03101,1873.45483,1379.03101z"/>
	<g>
		<polygon class="st8" points="1852.13696,1332.99915 1836.16199,1279.97217 1636.9707,1279.97217 1620.99573,1332.99915 		"/>
		<polygon class="st8" points="1671.62756,1164.93213 1655.65259,1217.95923 1817.47986,1217.95923 1801.50488,1164.93213 		"/>
	</g>
	<g>
		<polygon class="st9" points="1852.13672,1332.99915 1836.16174,1279.97217 1793.2666,1279.97217 1806.34192,1332.99915 		"/>
		<polygon class="st9" points="1764.90039,1164.93213 1777.97559,1217.95923 1817.47986,1217.95923 1801.50488,1164.93213 		"/>
	</g>
</g>
<ellipse class="st4" cx="1400" cy="1555.91882" rx="867.11035" ry="134.78754"/>
<path class="st0" d="M1088.88403,476.44434c-3.94495-3.94507-9.38574-6.38364-15.40088-6.38364H956.36108
	c-2.21118-32.55417-27.9873-58.64008-60.41382-61.29608c0.00018-0.07773,0.00293-0.15485,0.00293-0.23257
	c0-54.19598-43.93451-98.13052-98.13055-98.13052c-49.66779,0-90.71051,36.90204-97.22314,84.78308
	c-0.00104-0.00012-0.0022-0.0004-0.0033-0.00052c-3.06763-0.46762-6.21033-0.70145-9.39954-0.70145
	c-34.89551,0-63.18774,28.28296-63.18774,63.18765c0,4.24301,0.42548,8.38382,1.22339,12.39041h-10.75006
	c-12.01929,0-21.7735,9.75427-21.7735,21.78455c0,6.01514,2.43854,11.45578,6.38348,15.40088
	c3.9342,3.9342,9.3858,6.37277,15.39001,6.37277h43.32776h58.77313h116.56427h106.64093h129.69781
	c12.03027,0,21.7738-9.74341,21.7738-21.77365C1095.25696,485.83008,1092.81836,480.37857,1088.88403,476.44434z"/>
<path class="st0" d="M2171.21167,587.242c-3.02368-3.0238-7.20728-4.8988-11.82446-4.8988h-12.58936
	c0.17236-1.30109,0.27026-2.62573,0.27026-3.97394c0-16.56042-13.4248-29.98535-29.98535-29.98535
	c-5.51245,0-10.67285,1.49408-15.11084,4.08948c-7.7666-18.81653-26.28418-32.0589-47.90894-32.0589
	c-28.62329,0-51.82764,23.19348-51.82764,51.81683c0,3.45734,0.33594,6.83881,0.98621,10.11188h-16.40881
	c-7.77002-11.7796-20.68713-19.87518-35.55505-21.07953c0.47144-1.88599,0.7251-3.85822,0.7251-5.8902
	c0-13.37604-10.84338-24.21954-24.21924-24.21954c-2.81726,0-5.5199,0.48615-8.03467,1.37048
	c-8.53259-17.82184-26.73291-30.13205-47.81079-30.13205c-29.26086,0-52.9812,23.72049-52.9812,52.98111
	c0,9.85114,2.69763,19.0683,7.38098,26.96973h-16.32813c-9.23401,0-16.72314,7.48914-16.72314,16.72314
	c0,4.62787,1.87488,8.80054,4.90955,11.83514c3.01294,3.01306,7.2074,4.888,11.8136,4.888h90.70374h93.33752h31.9397h56.18457
	h77.23193c9.23413,0,16.72339-7.47827,16.72339-16.72314C2176.1106,594.44934,2174.2356,590.26587,2171.21167,587.242z"/>
<path class="st3" d="M2027.42346,778.47601h-39.53442c0.15295-1.20337,0.24048-2.42706,0.24048-3.67188
	c0-15.9444-12.92542-28.86987-28.86987-28.86987c-13.74011,0-25.22998,9.60181-28.14661,22.45941l-0.00146-0.00146
	c-10.14563-8.99091-23.48779-14.44519-38.0979-14.44519c-7.28967,0-14.27002,1.36096-20.69348,3.84583
	c-0.00647,0.00244-0.01294,0.00531-0.01917,0.00781c2.54517-6.49518,3.95789-13.55859,3.95789-20.95612
	c0-31.7464-25.7356-57.48193-57.48193-57.48193c-30.453,0-55.35938,23.68536-57.33972,53.63702
	c-4.95801-2.38086-10.51379-3.7157-16.38159-3.7157c-20.92688,0-37.8916,16.9646-37.8916,37.89166
	c0,20.927,16.96472,37.89166,37.8916,37.89166c0.77905,0,1.55042-0.03094,2.31763-0.07727
	c0.01135,0.00122,0.02209,0.00391,0.03333,0.00513c0.46387,0.05151,0.92786,0.07214,1.40222,0.07214h87.07361h114.26257h77.27844
	c3.67053,0,6.9906-1.48474,9.39294-3.89746c2.41284-2.40234,3.89746-5.72241,3.89746-9.39301
	C2040.71387,784.42529,2034.76465,778.47601,2027.42346,778.47601z"/>
<ellipse class="st10" cx="1452.85681" cy="1494.45972" rx="381.5621" ry="67.04977"/>
<path class="st10" d="M1066.56921,1434.06396l-71.30164,39.47388l72.13147,9.19189l-110.0484,52.08801l57.93109,40.05139
	l-103.125,31.85571l147.5824-28.50061l-41.25085-29.89734l171.13953-76.28589l-105.56799-8.09241
	c0,0,49.6582-19.87598,91.29114-36.5387C1137.92664,1429.25391,1101.60303,1431.48157,1066.56921,1434.06396z"/>
<g>
	<g>
		<circle class="st8" cx="1122.45813" cy="1125.86389" r="72.24594"/>
		<path class="st9" d="M1184.81799,1089.39844c1.2312,5.28577,1.90332,10.78662,1.90332,16.44727
			c0,39.90039-32.3457,72.24585-72.24597,72.24585c-26.59534,0-49.8186-14.38062-62.35974-35.7804
			c7.44763,31.9718,36.10303,55.79858,70.34253,55.79858c39.90027,0,72.24597-32.3457,72.24597-72.24597
			C1194.7041,1112.55884,1191.09204,1100.10413,1184.81799,1089.39844z"/>
		<path class="st9" d="M1156.68213,1032.12524c-35.00305-11.73706-69.08167-0.65515-76.11658,24.75208
			c-7.03479,25.4071,15.63818,55.51855,50.64124,67.25562c35.00305,11.73694,69.08154,0.65503,76.11633-24.75208
			C1214.35779,1073.97375,1191.68518,1043.86243,1156.68213,1032.12524z"/>
		<path class="st11" d="M1156.68213,1032.12524c-9.78809-3.2821-19.50269-4.77686-28.57507-4.67603
			c28.95215,13.70435,46.552,40.26868,40.24219,63.05811c-5.06763,18.30237-24.17004,29.16821-47.54114,29.4281
			c3.32544,1.5741,6.79224,2.98816,10.3988,4.19751c35.00305,11.73706,69.0813,0.65503,76.11621-24.75208
			C1214.35779,1073.97363,1191.68518,1043.86255,1156.68213,1032.12524z"/>
	</g>
	<g>
		<path class="st12" d="M1152.96265,1101.38062c-6.8396,0-13.78992-1.3241-20.49731-4.11951
			c-27.19531-11.33118-40.05469-42.56409-28.72205-69.7594l112.91479-270.96558
			c11.33276-27.19604,42.56567-40.05548,69.76013-28.72205c27.19519,11.3327,40.05469,42.56567,28.72205,69.76093
			l-112.91492,270.96478C1193.68823,1089.02844,1173.85364,1101.38062,1152.96265,1101.38062z"/>
		<path class="st13" d="M1286.41833,727.81409c-16.37915-6.82605-34.21692-4.86542-48.29578,3.70734
			c6.19421,0.23254,12.45203,1.5495,18.50989,4.07416c27.19519,11.3327,40.05481,42.56573,28.72205,69.76093l-112.91479,270.9649
			c-4.50403,10.80908-12.15417,19.35059-21.44324,25.01147c0.65588,0.02429,1.31201,0.04761,1.96619,0.04761
			c20.89099,0,40.72559-12.35205,49.2627-32.8407l112.91492-270.96478
			C1326.4729,770.37976,1313.61353,739.14673,1286.41833,727.81409z"/>
		<path class="st14" d="M1215.45837,955.50641c-7.36633,0-14.85107-1.42499-22.07471-4.43372
			c-29.28699-12.20465-43.1355-45.84045-30.93079-75.1275l50.41748-120.98798c12.20398-29.28705,45.83887-43.1355,75.12671-30.93085
			c29.28711,12.20471,43.1355,45.83966,30.93091,75.12592l-50.4176,120.98877
			C1259.31592,942.20532,1237.95618,955.50641,1215.45837,955.50641z"/>
		<path class="st15" d="M1287.99719,724.02637c-14.75793-6.14978-30.61646-5.67798-44.28381,0.04413
			c5.27148,0.59387,10.54834,1.91699,15.69128,4.06012c29.28699,12.20465,43.1355,45.83966,30.93079,75.12585l-50.4176,120.98883
			c-6.05396,14.5282-17.3833,25.25476-30.83813,30.88885c2.12988,0.23975,4.25916,0.37225,6.37866,0.37225
			c22.4978,0,43.85767-13.30109,53.052-35.36536l50.4176-120.98883C1331.13257,769.86603,1317.28418,736.23102,1287.99719,724.02637
			z"/>
		<path class="st15" d="M1312.63806,806.41077c-22.43701,0-43.77417-10.77087-57.07703-28.81256l-30.32544-41.13007
			c-5.14221,5.14795-9.39307,11.35632-12.36523,18.48907l-2.50244,6.00513c-1.53345,7.25934-2.35364,14.7818-2.35364,22.49823
			v53.28986c0,40.29565,21.96802,75.45959,54.5802,94.17151c2.30481-3.30927,4.30151-6.90668,5.91589-10.78088l47.42737-113.81317
			C1314.84155,806.37811,1313.74219,806.41077,1312.63806,806.41077z"/>
	</g>
</g>
<g>
	<g>
		<path class="st16" d="M1291.84741,1462.8009c-24.02173,0-43.49585-19.47327-43.49585-43.49585v-155.04602
			c0-24.02258,19.47412-43.49585,43.49585-43.49585s43.49597,19.47327,43.49597,43.49585v155.04602
			C1335.34338,1443.32764,1315.86914,1462.8009,1291.84741,1462.8009z"/>
		<g>
			<path class="st17" d="M1273.271,1350.58582h-22.05237c-2.9801,0-5.39575,2.41565-5.39575,5.39575
				s2.41565,5.39575,5.39575,5.39575h22.05237c2.9801,0,5.39575-2.41565,5.39575-5.39575S1276.2511,1350.58582,1273.271,1350.58582z
				"/>
			<path class="st17" d="M1273.271,1369.51929h-22.05237c-2.9801,0-5.39575,2.41565-5.39575,5.39575
				s2.41565,5.39575,5.39575,5.39575h22.05237c2.9801,0,5.39575-2.41565,5.39575-5.39575S1276.2511,1369.51929,1273.271,1369.51929z
				"/>
			<path class="st17" d="M1273.271,1388.45276h-22.05237c-2.9801,0-5.39575,2.41565-5.39575,5.39575
				c0,2.98022,2.41565,5.39587,5.39575,5.39587h22.05237c2.9801,0,5.39575-2.41565,5.39575-5.39587
				C1278.66675,1390.86841,1276.2511,1388.45276,1273.271,1388.45276z"/>
		</g>
		<g>
			<path class="st16" d="M1320.53528,1416.44775h-123.09045c-24.51233,0-44.38354,19.87122-44.38354,44.38367v38.1698h77.86975
				c2.40771-10.17395,11.5271-17.75342,22.43713-17.75342c10.90991,0,20.0293,7.57947,22.43701,17.75342h69.88074v-57.40271
				C1345.68591,1427.70813,1334.42554,1416.44775,1320.53528,1416.44775z"/>
			<path class="st17" d="M1153.06128,1476.80945v22.19177h77.86975c2.40771-10.17395,11.5271-17.75342,22.43713-17.75342
				c10.90991,0,20.0293,7.57947,22.43701,17.75342h69.88074v-22.19177H1153.06128z"/>
			<g>
				<path class="st17" d="M1236.33899,1435.20691v-22.05225c0-2.9801-2.41565-5.39575-5.39575-5.39575
					s-5.39575,2.41565-5.39575,5.39575v22.05225c0,2.98022,2.41565,5.39587,5.39575,5.39587
					S1236.33899,1438.18713,1236.33899,1435.20691z"/>
				<path class="st17" d="M1217.40552,1435.20691v-22.05225c0-2.9801-2.41565-5.39575-5.39575-5.39575
					c-2.98022,0-5.39587,2.41565-5.39587,5.39575v22.05225c0,2.98022,2.41565,5.39587,5.39587,5.39587
					C1214.98987,1440.60278,1217.40552,1438.18713,1217.40552,1435.20691z"/>
			</g>
		</g>
	</g>
	<path class="st16" d="M1697.19873,1411.84949h-0.41284c-0.41528-1.15784-0.87036-2.30969-1.39136-3.44897l-64.46643-141.00818
		c-9.98828-21.84766-35.79614-31.46082-57.64294-21.47278s-31.46094,35.79553-21.47278,57.64319l64.4668,141.00793
		c4.29956,9.40491,11.53442,16.53467,20.11902,20.81738v33.61316h74.82056v-57.17957L1697.19873,1411.84949z"/>
	<path class="st18" d="M1417.20508,1065.06873l-63.22656,97.53162v124.22083c0,1.0177-0.01648,2.03528-0.08191,3.0365
		c-1.57593,32.89368-28.75732,59.09021-62.04492,59.09021c-33.17249,0-60.27197-25.98315-62.0448-58.69629
		c-0.06567-1.13245-0.09839-2.28137-0.09839-3.43042v-142.58801c0-11.99866,3.47986-23.7345,9.99609-33.79651l73.22266-112.97711
		c18.6626-28.79004,57.13684-36.99701,85.94336-18.33435C1427.66077,997.78796,1435.88416,1036.26221,1417.20508,1065.06873z"/>
	<path class="st8" d="M1229.7085,1264.74426v22.0769c0,1.14905,0.03271,2.29797,0.09839,3.43042l124.08972-0.39392
		c0.06543-1.00122,0.08191-2.0188,0.08191-3.0365v-22.47083L1229.7085,1264.74426z M1229.7085,1170.08521v25.49084
		l124.27002-0.39392v-25.49084L1229.7085,1170.08521z"/>
	<path class="st18" d="M1617.04492,1343.28516c-8.38745,3.8573-17.20178,5.6792-25.88477,5.6792
		c-23.52112,0-46.04102-13.44287-56.49695-36.22571l-6.10596-13.31152l-10.65259-23.17664l-28.85571-62.88171l-10.65283-23.19299
		l-19.71289-42.93896l-42.66016-89.14404c-14.82153-30.95691-1.72327-68.0686,29.2334-82.87408
		c30.94043-14.82178,68.05212-1.73993,82.85754,29.2168l42.88989,89.6037c0.1311,0.29553,0.27893,0.59106,0.4104,0.90283
		l21.25598,46.30371l10.63623,23.17664l28.85583,62.86536l10.65259,23.19287l4.77637,10.40662
		C1661.92065,1292.07373,1648.23145,1328.97229,1617.04492,1343.28516z"/>
	<path class="st19" d="M1670.05029,1467.08057v31.92065H1559.6062v-31.92065c0-30.50049,24.73047-55.23108,55.23096-55.23108
		C1645.31982,1411.84949,1670.05029,1436.58008,1670.05029,1467.08057z"/>
	<rect x="1573.80896" y="1476.80945" class="st20" width="137.40964" height="22.19178"/>
	<rect x="1559.6062" y="1476.80945" class="st17" width="110.44398" height="22.19178"/>
	<g>
		<path class="st17" d="M1618.43054,1353.59985l-20.04651,9.18921c-2.70898,1.24182-3.89832,4.44434-2.65649,7.15344
			s4.44434,3.89844,7.15344,2.65662l20.04639-9.18933c2.70911-1.24182,3.89844-4.44434,2.65662-7.15344
			C1624.34216,1353.54736,1621.13965,1352.35803,1618.43054,1353.59985z"/>
		<path class="st17" d="M1626.32019,1370.81116l-20.04651,9.18933c-2.70898,1.24182-3.89832,4.44434-2.65649,7.15344
			c1.24182,2.70898,4.44434,3.89832,7.15344,2.65649l20.04639-9.18921c2.70911-1.24182,3.89844-4.44434,2.65662-7.15344
			S1629.0293,1369.56934,1626.32019,1370.81116z"/>
		<path class="st17" d="M1634.20984,1388.02258l-20.04651,9.18921c-2.70898,1.24182-3.89832,4.44434-2.65649,7.15344
			s4.44434,3.89844,7.15344,2.65662l20.04639-9.18933c2.70911-1.24182,3.89844-4.44434,2.65662-7.15344
			C1640.12146,1387.97009,1636.91895,1386.78076,1634.20984,1388.02258z"/>
	</g>
	<path class="st8" d="M1632.16235,1227.28772l-114.25769,48.96277l10.65259,23.17664l114.25769-48.94653L1632.16235,1227.28772z
		 M1592.67029,1141.24573l-114.27417,48.93005l10.65283,23.19299l114.25757-48.94641L1592.67029,1141.24573z"/>
</g>
<path class="st21" d="M1208.01428,758.53302v53.28992c0,59.92102,48.57556,108.49658,108.49658,108.49658h104.96155
	c59.92102,0,108.49658-48.57556,108.49658-108.49658v-53.28992c0-59.92096-48.57556-108.49658-108.49658-108.49658h-104.96155
	C1256.58984,650.03644,1208.01428,698.61206,1208.01428,758.53302z"/>
<path class="st12" d="M1343.9325,753.12109l-0.00012,0.00006c-23.47314,17.30688-56.53186,12.30811-73.83875-11.16504
	l-57.99585-78.65906l85.00391-62.67389l57.99585,78.65906C1372.40442,702.75543,1367.40564,735.81415,1343.9325,753.12109z"/>
<path class="st13" d="M1353.69421,677.37903l-56.59253-76.75586L1212.0979,663.297l57.99573,78.65912
	c1.60437,2.17596,3.34534,4.19147,5.20032,6.04681C1310.88708,736.31677,1338.88538,710.14923,1353.69421,677.37903z"/>
<g>
	<rect x="1315.24158" y="796.2157" class="st22" width="214.72743" height="175.53967"/>
	<g>
		<path class="st23" d="M1421.47241,650.03638h-65.5061l13.66296,18.53125c11.23254,15.23419,15.86096,33.93066,13.03101,52.64563
			s-12.77856,35.20746-28.0127,46.43994c-12.27124,9.04773-26.79773,13.83002-42.00952,13.83002
			c-22.43689,0-43.77429-10.77081-57.0769-28.81256l-34.17004-46.34418c-8.5199,15.49011-13.37671,33.27905-13.37671,52.2066
			v53.28979c0,59.92108,48.57544,108.49658,108.49658,108.49658h104.96143c59.92114,0,108.49658-48.5755,108.49658-108.49658
			v-53.28979C1529.96899,698.612,1481.39355,650.03638,1421.47241,650.03638z"/>
		<g>
			<rect x="1208.0144" y="792.3728" class="st8" width="321.95468" height="17.63959"/>
			<path class="st8" d="M1526.01306,840.84003c1.5813-5.70801,2.72974-11.59503,3.35974-17.63959H1208.6106
				c0.63,6.04456,1.77844,11.93158,3.35974,17.63959H1526.01306z"/>
		</g>
	</g>
	<path class="st18" d="M1529.96899,971.75537v10.89886c0,29.66003-12.01501,56.49677-31.44934,75.91461
		c-19.41748,19.43384-46.27087,31.44897-75.91455,31.44897c-59.30334,0-107.36353-48.06006-107.36353-107.36359v-10.89886
		H1529.96899z"/>
</g>
<g>
	<path class="st12" d="M1480.57007,950.23279c-19.39209,0-38.09192-10.60657-47.53308-29.05621
		c-13.41968-26.22711-3.0376-58.36896,23.18945-71.79022l39.33105-20.12476l-88.82214-81.10956
		c-21.75562-19.8667-23.28723-53.60822-3.42065-75.36475c19.86584-21.75732,53.61072-23.28571,75.36401-3.42065l145.60645,132.96265
		c12.91321,11.79114,19.22705,29.16364,16.89966,46.49445c-2.3291,17.33081-13.00293,32.42078-28.57056,40.38568
		l-107.78711,55.15668C1497.04822,948.34613,1488.74658,950.23279,1480.57007,950.23279z"/>
	<path class="st13" d="M1624.28503,802.32922l-145.60632-132.96259c-11.23291-10.25781-25.66211-14.7959-39.72778-13.8053
		c1.39258,1.04211,2.74927,2.15759,4.06055,3.35498l145.60645,132.96265c12.91309,11.79114,19.22717,29.16364,16.89966,46.49445
		c-2.3291,17.33081-13.00293,32.42078-28.57043,40.38574l-107.78723,55.15656c-6.60388,3.37891-13.58435,5.23419-20.54553,5.72205
		c9.22168,6.87109,20.4668,10.59503,31.95569,10.59503c8.17651,0,16.47803-1.88672,24.25708-5.86676l107.78711-55.15662
		c15.56763-7.96497,26.24146-23.05487,28.57068-40.38568C1643.51233,831.49286,1637.19836,814.12042,1624.28503,802.32922z"/>
	<path class="st14" d="M1500.92566,819.38599c-13.83325,0-27.70337-4.96423-38.72192-15.0274l-58.23499-53.17621
		c-23.4292-21.39508-25.07861-57.73254-3.68433-81.16174c21.39661-23.43073,57.73572-25.07697,81.16089-3.68433l58.23425,53.17706
		c23.42993,21.39502,25.07935,57.73254,3.68518,81.16168C1532.03198,813.0849,1516.50293,819.38599,1500.92566,819.38599z"/>
	<circle class="st9" cx="1470.76001" cy="899.79688" r="60.83968"/>
	<path class="st11" d="M1520.11499,864.24219c0.02966,0.77911,0.0592,1.55829,0.0592,2.34467
		c0,33.60089-27.23877,60.83972-60.8396,60.83972c-20.32312,0-38.30603-9.97461-49.35486-25.28491
		c1.23389,32.51251,27.96582,58.49487,60.78015,58.49487c33.60095,0,60.83984-27.23883,60.83984-60.83966
		C1531.59973,886.51923,1527.3335,874.24475,1520.11499,864.24219z"/>
	<g>
		<circle class="st8" cx="1428.64319" cy="920.28375" r="66.25555"/>
		<path class="st9" d="M1479.51758,877.84857c1.33582,5.24518,2.04944,10.73895,2.04944,16.39996
			c0,36.59192-29.66357,66.25562-66.25562,66.25562c-20.4447,0-38.7207-9.26556-50.87439-23.82043
			c7.29846,28.65894,33.27527,49.85553,64.20618,49.85553c36.59192,0,66.25549-29.66357,66.25549-66.25549
			C1494.89868,904.1366,1489.11633,889.34393,1479.51758,877.84857z"/>
		<path class="st8" d="M1374.87964,957.62543c-9.57507,0-18.44409-6.17761-21.42712-15.80322l-12.83862-41.42755
			c-1.81042-5.84106-1.15808-12.16943,1.80652-17.52002c2.9646-5.34894,7.98413-9.2569,13.89734-10.81812l45.74512-12.08282
			c11.98108-3.17383,24.26111,3.98163,27.42688,15.96509c3.16418,11.98187-3.98328,24.2619-15.96594,27.42609l-23.11182,6.10553
			l5.90918,19.06677c3.66833,11.83759-2.95422,24.40778-14.79175,28.07684
			C1379.31812,957.30005,1377.07971,957.62543,1374.87964,957.62543z"/>
	</g>
</g>
<g>
	<circle class="st24" cx="1085.15527" cy="1456.86023" r="37.99213"/>
	<circle class="st24" cx="1051.13318" cy="1432.50342" r="20.16155"/>
	
		<ellipse transform="matrix(0.65754 -0.75342 0.75342 0.65754 -714.0144 1355.79626)" class="st24" cx="1134.38403" cy="1463.32214" rx="54.62244" ry="31.71729"/>
</g>
<g>
	<path class="st25" d="M1469.78003,1358.01001C1438.87,1328.79004,1441.19995,1281.82996,1443.63,1263
		c3.05994-23.64001,10.54993-47.17004,17.78992-69.92993c2.4801-7.78003,5.02002-15.74011,7.39014-23.76001
		c1.17993-3.97009,2.31995-7.96008,3.3999-11.95007c12.58008-46.59998,12.29004-84.07996-0.8999-114.58997
		c-8.01001-18.54004-22.80005-35.00006-40.57007-45.15002c-2.6499-1.52002-5.33997-2.88-8.04004-4.08002
		c-17.08997-7.58997-35.03003-8.88-51.33997-3.54999l5.58997,17.10999c12.3501-4.03998,25.20996-2.66998,36.98999,2.26001
		c17.89014,7.47998,33.32007,23.15002,40.8501,40.54993c10.69995,24.76001,11.45996,55.57007,2.27002,93.95007
		c-0.68005,2.89001-1.43005,5.81995-2.22998,8.79993c-3.15015,11.67004-6.91016,23.51001-10.56006,34.95007
		c-7.47998,23.52002-15.21997,47.83997-18.48999,73.07996c-5.89001,45.59009,5.63989,85.83008,31.62988,110.40002
		c36.43018,34.44006,92.34009,32.26001,137.30005,26.30005l-7.83997-17.15002
		C1546.91992,1385.12,1499.33008,1385.94995,1469.78003,1358.01001z"/>
	<path class="st25" d="M2129.89014,1428.87c-27-25.31995-60.38013-46-96.54016-59.81995
		c-61.21997-23.39014-133.69006-30.72009-221.5199-22.41003c-43.75,4.14001-87.64014,11.59998-130.08008,18.80994
		c-1.84998,0.31006-3.69995,0.63-5.56006,0.94006l7.73999,16.93994c0.28003-0.04993,0.55005-0.08997,0.83008-0.14001
		c42.12-7.1499,85.67993-14.54993,128.76001-18.62988c85.02002-8.05005,154.82996-1.08008,213.40991,21.30994
		c56.22998,21.48999,102.39014,59.02002,129.83008,104.20007c8.68994,2.40991,16.91992,4.85986,24.66992,7.35986
		C2169.17993,1472.51001,2151.91992,1449.53003,2129.89014,1428.87z"/>
</g>
<g>
	<path class="st26" d="M1183.80298,1279.44946c-8.15332,0-15.99805-4.51697-19.86743-12.31677l-42.03589-84.73865
		c-5.43872-10.9624-0.96021-24.25867,10.00305-29.69739c10.96399-5.43713,24.25867-0.96021,29.69812,10.00378l42.03589,84.73865
		c5.43872,10.9624,0.96021,24.25867-10.00305,29.69739C1190.4696,1278.70581,1187.1106,1279.44946,1183.80298,1279.44946z"/>
	<g>
		<g>
			<polygon class="st27" points="1084.17432,1483.68872 1182.99475,1328.75342 1162.6145,1315.75452 1063.79395,1470.68982 
				1055.65735,1469.84204 1045.21619,1486.21204 1040.31189,1513.63977 1055.13037,1523.09119 1077.93274,1507.07922 
				1088.37378,1490.70923 			"/>
			<polygon class="st28" points="1182.99475,1328.75342 1172.29626,1321.92981 1047.21289,1518.04126 1055.13037,1523.09119 
				1077.93274,1507.07922 1088.37378,1490.70923 1084.17432,1483.68872 			"/>
		</g>
		<path class="st25" d="M1168.82141,1353.3042l-23.50879-14.99426c-9.86365-6.29126-12.75977-19.38745-6.46851-29.2511
			l26.38562-41.36865l59.22852,37.77698l-26.38562,41.36853C1191.78137,1356.69946,1178.68518,1359.59546,1168.82141,1353.3042z"/>
		<path class="st26" d="M1208.45471,1295.25989l-28.04541,43.97107c-5.37463,8.42639-16.56238,10.90039-24.98889,5.52576
			l13.401,8.54736c9.86389,6.29138,22.95996,3.39539,29.25122-6.46838l26.38562-41.36853L1208.45471,1295.25989z"/>
		<path class="st27" d="M1196.80798,1199.89746l-38.51563,60.3866c-4.08496,6.40466-2.20459,14.9082,4.20007,18.99316
			l52.61328,33.55774c6.40466,4.08496,14.9082,2.20447,18.99329-4.20007l38.51563-60.3866L1196.80798,1199.89746z"/>
		<path class="st28" d="M1256.7644,1238.13867l-38.51563,60.3866c-4.08508,6.40466-12.58838,8.28528-18.99316,4.2002
			l15.8501,10.10938c6.40479,4.08508,14.9082,2.20459,18.99316-4.20007l38.51563-60.3866L1256.7644,1238.13867z"/>
	</g>
	<path class="st25" d="M1408.0094,1009.1814l-70.09753-44.70941c-11.37378-7.25439-26.47461-3.91492-33.72888,7.45874
		l-131.3512,205.93842c-7.25427,11.37366-3.91504,26.47461,7.45874,33.729l70.09753,44.70935
		c11.37341,7.25427,26.47461,3.91492,33.72888-7.45874l131.3512-205.93835
		C1422.72241,1031.53674,1419.38293,1016.43561,1408.0094,1009.1814z"/>
	<path class="st23" d="M1424.02917,906.75903L1424.02917,906.75903c10.80115,6.8891,13.97241,21.2298,7.08325,32.03082
		l-38.59473,60.51068l-39.11414-24.94769l38.59485-60.51062C1398.88745,903.0412,1413.22815,899.86993,1424.02917,906.75903z"/>
	<path class="st26" d="M1421.10583,1017.53455l-16.23083-10.35229c-11.37378-7.25446-26.47461-3.91492-33.729,7.45874
		l-131.35107,205.93835c-7.25439,11.37366-3.91516,26.47461,7.45874,33.729l16.23083,10.35229
		c11.37354,7.25427,26.47461,3.91504,33.729-7.45862l131.35107-205.93848
		C1435.81897,1039.88989,1432.47937,1024.78882,1421.10583,1017.53455z"/>
	<g>
		<path class="st25" d="M1413.98633,1078.25488l-24.33264-15.51978c-8.45679-5.3938-19.68506-2.91064-25.07886,5.54602
			l-85.00073,133.26794c-5.3938,8.45679-2.91101,19.68506,5.54578,25.07898l6.46887,4.12598
			c8.45679,5.3938,19.68506,2.91077,25.07886-5.54602l25.56836-40.08728l1.00415,0.6405l29.35132-11.53821
			c4.46802-1.75659,8.26514-4.88281,10.84668-8.9303l36.97571-57.97217
			C1426.66504,1097.51953,1423.78748,1084.50635,1413.98633,1078.25488z"/>
		<path class="st26" d="M1428.68042,1087.62708l-24.33264-15.51978c-8.45679-5.3938-19.68494-2.91077-25.07886,5.54602
			l-85.00061,133.26794c-5.39392,8.45679-2.91101,19.68506,5.54565,25.07898l6.46899,4.12598
			c8.45667,5.3938,19.68494,2.91064,25.07886-5.54602l25.56824-40.08728l1.00415,0.6405l29.35132-11.53821
			c4.46802-1.75659,8.26514-4.88281,10.84668-8.9303l36.97571-57.97217
			C1441.35913,1106.8916,1438.48169,1093.87854,1428.68042,1087.62708z"/>
	</g>
	<g>
		<path class="st26" d="M1336.96375,1029.12854l-31.85425-20.31714c-2.82874-1.80426-6.58423-0.97375-8.38855,1.85498
			c-1.8042,2.8288-0.97375,6.58429,1.8551,8.38849l31.85413,20.3172c2.82861,1.8042,6.58435,0.97375,8.38855-1.85498
			S1339.79236,1030.93274,1336.96375,1029.12854z"/>
		<path class="st26" d="M1320.5448,1054.87085l-31.85425-20.31714c-2.82874-1.8042-6.58423-0.97375-8.38843,1.85498
			c-1.80432,2.82874-0.97375,6.58423,1.85498,8.38855l31.85425,20.31714c2.82861,1.80408,6.58423,0.97375,8.38843-1.85498
			C1324.2041,1060.43066,1323.37341,1056.67505,1320.5448,1054.87085z"/>
		<path class="st26" d="M1304.12585,1080.61316l-31.85413-20.31714c-2.82874-1.8042-6.58435-0.97375-8.38855,1.85498
			s-0.97375,6.58423,1.85498,8.38855l31.85425,20.31714c2.82861,1.80408,6.58423,0.97375,8.38855-1.85498
			C1307.78516,1086.17297,1306.95447,1082.41736,1304.12585,1080.61316z"/>
		<path class="st26" d="M1287.70703,1106.35547l-31.85425-20.31714c-2.82874-1.8042-6.58423-0.97375-8.38843,1.85498
			c-1.80432,2.82874-0.97375,6.58423,1.85498,8.38855l31.85425,20.31714c2.82861,1.80408,6.58423,0.97375,8.38843-1.85498
			C1291.36621,1111.91516,1290.53564,1108.15967,1287.70703,1106.35547z"/>
	</g>
</g>
<ellipse transform="matrix(0.99968 -0.02534 0.02534 0.99968 -38.4502 26.84702)" class="st0" cx="1039.89404" cy="1530.28992" rx="163.7513" ry="20.40617"/>
<g>
	<ellipse class="st8" cx="1043.54614" cy="1525.11536" rx="163.7513" ry="20.40617"/>
	<circle class="st24" cx="940.77997" cy="1482.63171" r="34.43483"/>
	<circle class="st24" cx="968.50653" cy="1439.04932" r="33.26064"/>
	<circle class="st8" cx="986.69177" cy="1448.64893" r="36.30708"/>
	<circle class="st8" cx="1029.78125" cy="1461.59167" r="22.54234"/>
	
		<ellipse transform="matrix(0.74849 -0.66315 0.66315 0.74849 -697.70007 1139.7196)" class="st8" cx="1153.67261" cy="1489.65637" rx="58.85663" ry="26.37692"/>
	<path class="st9" d="M1164.4895,1501.86499c22.75513-20.16077,35.93396-43.00549,31.14917-53.09717
		c0.76428,0.54187,1.46558,1.15601,2.0874,1.85791c9.6604,10.90356-2.23193,37.21765-26.56177,58.77344
		c-24.33008,21.55603-51.88477,30.19141-61.54517,19.28784c-0.62488-0.70544-1.15552-1.47766-1.60254-2.30615
		C1117.44995,1532.36243,1141.72424,1522.03442,1164.4895,1501.86499z"/>
	<circle class="st8" cx="975.33325" cy="1496.31458" r="47.66556"/>
	<ellipse class="st8" cx="1043.35645" cy="1501.77661" rx="68.0232" ry="35.52823"/>
	<path class="st9" d="M983.35583,1466.61572c-0.9729,2.72632-1.50665,5.66113-1.50665,8.72168
		c0,14.33154,11.61804,25.94971,25.94977,25.94971c6.20764,0,11.90393-2.1825,16.36987-5.81836
		c-3.58295,10.04041-13.17188,17.22827-24.44312,17.22827c-14.33173,0-25.94977-11.61816-25.94977-25.94983
		C973.77594,1478.62329,977.51135,1471.37402,983.35583,1466.61572z"/>
	<path class="st9" d="M1050.71667,1509.82373c1.71912,1.3667,3.69153,2.40771,5.88025,3.0271
		c10.24927,2.8999,21.31201-4.48254,24.70923-16.48926c1.47144-5.20068,1.26086-10.41443-0.28076-14.8916
		c6.33118,5.03333,9.19861,14.52112,6.52686,23.96387c-3.39709,12.00684-14.45984,19.38916-24.70923,16.48926
		C1057.0332,1520.2793,1052.73425,1515.68298,1050.71667,1509.82373z"/>
	<polygon class="st29" points="956.25842,1304.57629 1012.69012,1322.41101 976.32275,1188.42419 1055.28027,1366.78491 
		1022.49585,1356.42383 1075.95374,1443.88904 	"/>
	<circle class="st29" cx="995.58136" cy="1443.40381" r="8.88963"/>
	<circle class="st29" cx="1032.05298" cy="1472.17969" r="7.19128"/>
	<polygon class="st8" points="1092.28772,1479.53479 1186.62756,1367.40137 1180.69678,1413.6626 1290.51587,1329.78296 
		1161.66418,1446.67639 1166.72278,1407.21094 	"/>
</g>
<g>
	<g>
		<path class="st8" d="M1335.34106,1251.60828c-0.46484,0-0.9353-0.13147-1.35278-0.4071
			c-1.13489-0.74695-1.4491-2.27454-0.70056-3.40942l6.19849-9.40442c0.74866-1.13477,2.27698-1.44897,3.41113-0.70044
			c1.13477,0.74695,1.44897,2.27454,0.70044,3.40942l-6.19849,9.40442
			C1336.92639,1251.21875,1336.14099,1251.60828,1335.34106,1251.60828z"/>
		<path class="st8" d="M1350.21863,1229.03589c-0.46484,0-0.9353-0.13147-1.35291-0.4071
			c-1.13477-0.74695-1.44897-2.27454-0.70044-3.40942l14.69397-22.29346c0.31189-0.4729,0.77747-0.82397,1.31763-0.9939
			l16.53186-5.19507c1.29749-0.40234,2.6792,0.31262,3.08716,1.61096c0.4071,1.29675-0.31335,2.67847-1.61096,3.08569
			l-15.6958,4.93372l-14.21228,21.56104C1351.80396,1228.64636,1351.01855,1229.03589,1350.21863,1229.03589z"/>
		<path class="st8" d="M1392.52307,1198.0658c-1.04675,0-2.01733-0.67163-2.34827-1.72473
			c-0.40723-1.29675,0.31335-2.67847,1.61084-3.08569l11.505-3.61609l7.79907-13.77405
			c0.67004-1.18286,2.17273-1.59802,3.35571-0.92969c1.18298,0.67004,1.59888,2.17358,0.92896,3.35657l-8.27759,14.61865
			c-0.30688,0.54187-0.80945,0.94897-1.40417,1.13489l-12.43066,3.90637
			C1393.01672,1198.02893,1392.76746,1198.0658,1392.52307,1198.0658z"/>
		<path class="st8" d="M1420.57666,1166.56506c-0.41113,0-0.82788-0.10254-1.21106-0.31897
			c-1.18298-0.66992-1.59888-2.17346-0.92883-3.35645l5.59412-9.87891c0.66931-1.18286,2.17358-1.59802,3.35583-0.92969
			c1.18286,0.67004,1.59961,2.17358,0.92883,3.35657l-5.59424,9.87878
			C1422.26855,1166.11633,1421.43506,1166.56506,1420.57666,1166.56506z"/>
		<path class="st8" d="M1433.51941,1143.7074c-0.41187,0-0.82861-0.10254-1.21179-0.31897
			c-1.18298-0.67163-1.59973-2.17358-0.92969-3.35657l4.89209-8.63806c0.67163-1.18298,2.17688-1.59656,3.35657-0.92981
			c1.18298,0.67004,1.59973,2.17358,0.92969,3.35657l-4.89209,8.63818
			C1435.21057,1143.25854,1434.37708,1143.7074,1433.51941,1143.7074z"/>
	</g>
	<g>
		<path class="st8" d="M1088.54761,1410.22095c-0.46411,0-0.93372-0.13147-1.35132-0.40552
			c-1.13562-0.74695-1.45068-2.27454-0.70288-3.40942l4.24451-6.4502c0.7478-1.13489,2.2738-1.4491,3.41028-0.70374
			c1.13562,0.74695,1.45068,2.27454,0.70288,3.40942l-4.24451,6.4502
			C1090.13367,1409.83142,1089.34827,1410.22095,1088.54761,1410.22095z"/>
		<path class="st8" d="M1096.41467,1398.26636c-0.46399,0-0.93372-0.13147-1.3512-0.40552
			c-1.13574-0.74707-1.45068-2.27466-0.70288-3.40942l7.48157-11.36804c0.74866-1.13647,2.27222-1.45056,3.41028-0.70361
			c1.13562,0.74695,1.45068,2.27454,0.70288,3.40942l-7.48169,11.36792
			C1098.00085,1397.87683,1097.21533,1398.26636,1096.41467,1398.26636z"/>
		<path class="st8" d="M1108.01428,1380.6405c-0.46399,0-0.93372-0.13135-1.35132-0.40552
			c-1.13562-0.74695-1.45056-2.27454-0.70288-3.40942l3.36304-5.11011c0.74695-1.13647,2.27295-1.44897,3.41016-0.70361
			c1.13574,0.74695,1.45068,2.27454,0.70288,3.40942l-3.36292,5.11011
			C1109.60034,1380.2511,1108.81494,1380.6405,1108.01428,1380.6405z"/>
		<path class="st8" d="M1116.9353,1367.08301c-0.46399,0-0.93359-0.13147-1.3512-0.40552
			c-1.13574-0.74695-1.45068-2.27454-0.70288-3.40942l2.84277-4.31995c0.74695-1.13477,2.27209-1.44897,3.41028-0.70361
			c1.13562,0.74695,1.45056,2.27454,0.70288,3.40942l-2.8429,4.31982
			C1118.52148,1366.69348,1117.73596,1367.08301,1116.9353,1367.08301z"/>
		<path class="st8" d="M1127.25024,1351.40967c-0.46411,0-0.93457-0.13147-1.35132-0.40564
			c-1.13562-0.74695-1.45068-2.27454-0.70288-3.40942l1.94751-2.95898c0.7478-1.13647,2.27625-1.44897,3.41028-0.70361
			c1.13562,0.74695,1.45068,2.27454,0.70288,3.40942l-1.94763,2.95898
			C1128.8363,1351.02014,1128.0509,1351.40967,1127.25024,1351.40967z"/>
	</g>
	<path class="st8" d="M1344.62366,955.98248c-0.40479,0-0.81592-0.09943-1.19495-0.31097l-4.85608-2.70258
		c-1.18774-0.6604-1.61499-2.16071-0.95374-3.34851c0.65955-1.18933,2.15991-1.61731,3.34851-0.95374l4.85608,2.70258
		c1.18774,0.6604,1.61487,2.16071,0.95374,3.34851C1346.32751,955.52722,1345.4884,955.98248,1344.62366,955.98248z"/>
	<path class="st8" d="M1296.50464,960.09875c-0.49133,0-0.98657-0.14587-1.41858-0.45203
		c-1.11084-0.78381-1.37451-2.32104-0.58984-3.43182l4.44885-6.29468c7.12341-10.08081,20.6272-13.15686,31.4165-7.15387
		l3.37341,1.87701c1.1886,0.6604,1.61572,2.15912,0.95532,3.34851c-0.66125,1.18774-2.15918,1.61737-3.34851,0.95374
		l-3.37415-1.87701c-8.58533-4.77673-19.33289-2.32904-25.00085,5.6936l-4.44885,6.29626
		C1298.03784,959.73651,1297.27722,960.09875,1296.50464,960.09875z"/>
	<path class="st8" d="M1282.38281,980.08563c-0.49048,0-0.98657-0.14587-1.41858-0.45203
		c-1.10999-0.78381-1.37451-2.32104-0.58984-3.43024l9.03174-12.78174c0.78381-1.11243,2.3186-1.37854,3.43176-0.58984
		c1.11011,0.78381,1.37451,2.32098,0.58997,3.43024l-9.03174,12.78174
		C1283.91602,979.72339,1283.15552,980.08563,1282.38281,980.08563z"/>
	<path class="st8" d="M1270.95728,996.25433c-0.49133,0-0.98669-0.14587-1.4187-0.45203
		c-1.10999-0.78381-1.37451-2.32104-0.58984-3.43024l3.19788-4.52509c0.7854-1.11243,2.31946-1.37848,3.43188-0.58984
		c1.10999,0.78381,1.37451,2.32104,0.58984,3.43024l-3.19788,4.52509
		C1272.49036,995.89209,1271.72986,996.25433,1270.95728,996.25433z"/>
	<path class="st8" d="M1261.01831,1010.32001c-0.49133,0-0.98657-0.14587-1.41858-0.45203
		c-1.11011-0.78381-1.37451-2.32104-0.58997-3.43024l6.56885-9.29535c0.78467-1.11249,2.32104-1.37854,3.43188-0.5899
		c1.10999,0.78381,1.37451,2.32104,0.58984,3.43024l-6.56885,9.29541
		C1262.55151,1009.95776,1261.79089,1010.32001,1261.01831,1010.32001z"/>
	<path class="st8" d="M1248.34875,1028.25037c-0.49048,0-0.98657-0.14587-1.41858-0.45203
		c-1.10999-0.78381-1.37451-2.32104-0.58984-3.4303l7.90564-11.18842c0.78381-1.11084,2.31775-1.38013,3.43176-0.58984
		c1.11011,0.78381,1.37451,2.32098,0.58997,3.43024l-7.90564,11.18835
		C1249.88196,1027.88806,1249.12134,1028.25037,1248.34875,1028.25037z"/>
</g>
<g>
	<g>
		<path class="st25" d="M1156.84351,560.96454l-49.97131,12.31616l-9.93506-40.31024
			c-3.401-13.79913,5.02844-27.74265,18.82764-31.14365v-0.00003c13.79919-3.401,27.74268,5.02838,31.14368,18.82758
			L1156.84351,560.96454z"/>
		<path class="st25" d="M1134.56067,555.14832l-37.31189,9.19611c-12.32727,3.03821-19.85754,15.49445-16.81921,27.82172
			l18.3606,74.49597c3.03821,12.32727,15.49438,19.85748,27.82166,16.81927l37.31189-9.19604
			c12.32727-3.03827,19.85754-15.49445,16.81934-27.82172l-18.3606-74.49603
			C1159.34412,559.64032,1146.88794,552.11011,1134.56067,555.14832z"/>
		<path class="st23" d="M1155.21545,550.05768l-37.31189,9.19604c-12.32727,3.03821-19.85754,15.49445-16.81921,27.82172
			l18.3606,74.49597c3.03821,12.32727,15.49438,19.85754,27.82166,16.81927l37.31189-9.19604
			c12.32727-3.03821,19.85754-15.49445,16.81934-27.82172l-18.3606-74.49597
			C1179.9989,554.54968,1167.54272,547.01941,1155.21545,550.05768z"/>
		
			<ellipse transform="matrix(0.97094 -0.2393 0.2393 0.97094 -95.24915 284.4614)" class="st30" cx="1123.81128" cy="534.47467" rx="9.72137" ry="9.72149"/>
		<g>
			<path class="st31" d="M1171.99609,595.68042l-34.86865,8.59387c-3.18921,0.78601-6.41174-1.16211-7.19775-4.3512v-0.00006
				c-0.78601-3.18915,1.16211-6.41162,4.35132-7.19763l34.86877-8.59393c3.18909-0.78601,6.41162,1.16211,7.19763,4.35126l0,0
				C1177.13342,591.67188,1175.1853,594.89441,1171.99609,595.68042z"/>
			<path class="st31" d="M1181.08276,632.5481l-34.86877,8.59393c-3.18921,0.78601-6.41162-1.16211-7.19763-4.35126l0,0
				c-0.78601-3.18915,1.16211-6.41168,4.3512-7.19769l34.86877-8.59387c3.18909-0.78601,6.41162,1.16211,7.19763,4.35126l0,0
				C1186.21997,628.53961,1184.27185,631.76208,1181.08276,632.5481z"/>
		</g>
	</g>
	<path class="st32" d="M1333.47021,684.51947l-40.7677,8.68304l-42.08057-197.57349l140.47119-29.91861l20.84509,97.8699
		C1423.66638,618.64508,1388.53503,672.79138,1333.47021,684.51947z"/>
	<path class="st12" d="M1266.85095,732.94257c-7.01147,1.21619-14.04419,2.29352-21.09814,3.23206
		c-70.76331,9.41473-136.00916-39.70148-146.81873-110.2652l-10.72034-69.98126
		c-11.63281-75.93759,40.49646-146.92743,116.43408-158.56024l0.00024-0.00003
		c75.93762-11.63281,146.92749,40.49655,158.5603,116.43417l10.72034,69.98126
		C1384.73816,654.34698,1337.1875,720.74237,1266.85095,732.94257z"/>
	<path class="st33" d="M1252.57703,735.12915c-67.51135,8.91663-130.15759-40.59784-140.96704-111.16156l-10.72034-69.9812
		c-11.46643-74.85208,36.26331-144.47119,107.00537-157.07388c-1.08154,0.14011-2.16345,0.2894-3.24695,0.45535l-0.00024,0.00009
		c-75.93762,11.63278-128.06689,82.62259-116.4342,158.56021l10.72034,69.98126
		c10.80981,70.56366,76.05542,119.67993,146.81885,110.26514c4.61133-0.61346,9.21021-1.30853,13.80347-2.04065
		C1257.2312,734.47491,1254.9071,734.82147,1252.57703,735.12915z"/>
	<circle class="st32" cx="1325.0127" cy="527.61566" r="64.99823"/>
	
		<ellipse transform="matrix(0.93105 -0.36489 0.36489 0.93105 -110.18747 475.17639)" class="st34" cx="1202.26221" cy="529.15338" rx="176.22815" ry="49.33669"/>
	<path class="st35" d="M1054.3916,591.91931c-9.9425-25.3692,55.45752-74.72467,146.07495-110.23862
		c42.23535-16.55246,82.49048-27.17349,114.44714-31.23117c-33.92444,2.00781-80.91711,13.27652-130.65381,32.76883
		c-90.61743,35.51395-156.01758,84.86948-146.07507,110.23868c5.30859,13.5451,31.02563,17.51068,67.63354,12.8623
		C1077.93396,607.96973,1058.87708,603.36432,1054.3916,591.91931z"/>
	<path class="st23" d="M1202.39526,332.84195l-0.00037,0.00003c-94.02332,14.40335-158.56812,102.30054-144.16467,196.32391v0.00018
		c3.35144,21.87756,23.80347,36.89594,45.68103,33.54456l275.80139-42.24976c13.84839-2.12146,23.35498-15.06754,21.23364-28.91595
		l-2.22717-14.53824C1384.3158,382.98334,1296.41858,318.4386,1202.39526,332.84195z"/>
	<g>
		<path class="st36" d="M1069.10059,528.77252l-1.00854-6.58276c-13.81458-90.18115,47.3551-174.53201,136.97729-189.7229
			c-0.89124,0.12253-1.78174,0.2384-2.67407,0.37509l-0.00037,0.00006c-94.02332,14.40329-158.56812,102.30048-144.16479,196.32382
			v0.00018c3.35144,21.87756,23.80359,36.896,45.68103,33.54462l9.43726-1.44568
			C1092.1571,564.51111,1072.3468,549.96368,1069.10059,528.77252z"/>
		<polygon class="st36" points="1162.70239,553.70447 1379.71277,520.46088 1379.7146,520.46051 		"/>
	</g>
	<path class="st22" d="M1400.94617,491.54489l-2.22705-14.53824c-14.40332-94.02332-102.30042-158.56808-196.32385-144.1647
		l-0.00037,0.00006c-2.40515,0.36844-4.78601,0.79718-7.15186,1.26068c83.56653-9.08679,160.23755,49.21082,173.09094,133.11581
		l4.70728,30.72842c1.94543,12.70047-6.77307,24.57346-19.47351,26.51901l-211.35474,32.37726l237.49976-36.38232
		C1393.56104,518.33942,1403.06763,505.39334,1400.94617,491.54489z"/>
	<g>
		<path class="st25" d="M1372.49182,541.02075l-50.29565,10.91602l-8.80554-40.5719
			c-3.0144-13.88876,5.80103-27.59146,19.68982-30.6058v-0.00003c13.88879-3.01434,27.59143,5.80109,30.60583,19.68985
			L1372.49182,541.02075z"/>
		<path class="st25" d="M1350.38013,534.58466l-37.55408,8.15057c-12.40735,2.69287-20.28247,14.93396-17.5896,27.34125
			l16.27332,74.97961c2.69287,12.40729,14.93396,20.28241,27.34119,17.5896l37.5542-8.15063
			c12.40723-2.69281,20.28235-14.9339,17.5896-27.34119l-16.27332-74.97968
			C1375.02856,539.76691,1362.78748,531.89178,1350.38013,534.58466z"/>
		<path class="st23" d="M1371.16907,530.07269l-37.5542,8.15057c-12.40723,2.69287-20.28235,14.93396-17.58948,27.34125
			l16.27332,74.97961c2.69275,12.40729,14.93384,20.28247,27.34119,17.5896l37.55408-8.15057
			c12.40735-2.69287,20.28247-14.93396,17.5896-27.34125l-16.27332-74.97961
			C1395.81738,535.255,1383.57629,527.37982,1371.16907,530.07269z"/>
		
			<ellipse transform="matrix(0.97725 -0.2121 0.2121 0.97725 -78.44569 295.94278)" class="st30" cx="1340.21228" cy="513.6189" rx="9.72137" ry="9.72149"/>
		<g>
			<path class="st31" d="M1386.66919,576.14624l-35.09509,7.61688c-3.20984,0.69666-6.37671-1.3407-7.07336-4.55054l0,0
				c-0.69666-3.20984,1.3407-6.37671,4.55054-7.07336l35.09521-7.61688c3.20984-0.69666,6.37659,1.3407,7.07324,4.55054l0,0
				C1391.91638,572.28271,1389.87903,575.44958,1386.66919,576.14624z"/>
			<path class="st31" d="M1394.72278,613.25323l-35.09509,7.61694c-3.20984,0.69666-6.37671-1.3407-7.07336-4.55054l0,0
				c-0.69666-3.20984,1.3407-6.37671,4.55054-7.07336l35.09509-7.61694c3.20996-0.69666,6.37671,1.3407,7.07336,4.55054v0.00006
				C1399.96997,609.38977,1397.93262,612.55658,1394.72278,613.25323z"/>
		</g>
	</g>
	<path class="st22" d="M1190.62244,529.42487l-8.91333-140.05594c-1.10815-17.41519-16.12451-30.63461-33.53955-29.52628
		l-14.74292,0.9382c-0.82788,0.0527-1.6366,0.16562-2.44446,0.27991c-9.25647,6.36392-17.82104,13.59442-25.59949,21.55414
		c-1.18713,3.67419-1.74243,7.6185-1.4823,11.70575l8.91309,140.056c0.67004,10.52496,6.43774,19.49084,14.72668,24.71429
		l56.79956-8.70111C1188.70837,544.57733,1191.12036,537.25024,1190.62244,529.42487z"/>
	<path class="st36" d="M1146.32361,561.32336l-14.7428,0.93823c-17.41516,1.10828-32.43152-12.11108-33.53979-29.52631
		l-8.91321-140.05597c-1.10828-17.41522,12.11108-32.43152,29.52637-33.53983l14.74268-0.93823
		c17.41528-1.10831,32.43152,12.11108,33.53979,29.52631l8.91321,140.05594
		C1176.95813,545.19873,1163.73877,560.21503,1146.32361,561.32336z"/>
	
		<ellipse transform="matrix(0.99798 -0.06351 0.06351 0.99798 -29.41093 72.83115)" class="st23" cx="1130.87561" cy="499.02814" rx="24.64022" ry="31.53957"/>
	<path class="st29" d="M1190.6532,673.95313c7.12708,23.79321,27.80017,38.86096,47.08032,33.84186
		c19.28003-5.0191,29.98193-28.25446,24.60278-52.50269L1190.6532,673.95313z"/>
</g>
</svg>
