<svg id="SvgjsSvg1001" width="288" height="288" xmlns="http://www.w3.org/2000/svg" version="1.1" xmlns:xlink="http://www.w3.org/1999/xlink" xmlns:svgjs="http://svgjs.com/svgjs"><defs id="SvgjsDefs1002"></defs><g id="SvgjsG1008" transform="matrix(0.9167,0,0,0.9167,11.995200000000011,11.996053180573426)"><svg xmlns="http://www.w3.org/2000/svg" data-name="Layer 1" viewBox="0 0 128 128" width="288" height="288"><path d="M65.02637,97.21844a2.00582,2.00582,0,0,0-1.97363-.04492,1.7148,1.7148,0,0,0-1.00488,1.42194l-.01855-.00293c-.07129.40234-3.31445,17.86444-5.02051,27.04224a2.00042,2.00042,0,1,0,3.93359.73047c1.33887-7.209,2.32422-12.50891,3.04785-16.40936.17676.94928.35742,1.91895.53809,2.88776,1.2627,6.76367,2.53027,13.52454,2.53027,13.52454a2,2,0,0,0,3.93164-.73633c-1.92187-10.24719-4.81152-25.72192-5.001-26.90747A2.00217,2.00217,0,0,0,65.02637,97.21844Z" fill="#ffffff" class="color000 svgShape"></path><path d="M79.37976,127.83936c.02686.002.05377.002.08063.002a2.01914,2.01914,0,0,0,2.03625-1.91589l1.8728-46.825.00012-.00085.87854-16.32a6.21674,6.21674,0,0,0,1.71033-.624A5.94329,5.94329,0,0,0,89.072,57.27631L89.997,41.225c.002-.037.003-.07446.003-.11194A15.02157,15.02157,0,0,0,79.27368,26.84222a19.0232,19.0232,0,0,1-3.4505,3.36041A11.07958,11.07958,0,0,1,85.92157,41.059l-.92206,15.99292A1.95436,1.95436,0,0,1,83.962,58.67816a2.03549,2.03549,0,0,1-1.95959.02l-16.021-8.3775a2.08429,2.08429,0,0,0-1.94757.01257L46.1051,60.00995a2.0481,2.0481,0,0,1-1.9715,0,1.968,1.968,0,0,1-1.0495-1.63214L42.07843,41.059A11.07956,11.07956,0,0,1,52.18329,30.20233a18.99432,18.99432,0,0,1-3.47253-3.35455A15.02093,15.02093,0,0,0,38,41.1131c0,.03748.001.07544.003.11292L39.01166,58.6037a5.93946,5.93946,0,0,0,3.14941,4.89624,6.23968,6.23968,0,0,0,1.59052.59l.87885,15.01837.00061.00378,1.87231,46.81335a2.03923,2.03923,0,0,0,4.07446-.15576L48.78754,80.9881H79.21246l-1.79028,44.78156A2.01152,2.01152,0,0,0,79.37976,127.83936ZM48.59235,77.00067,47.81006,63.624c.08844-.04248.17963-.07617.26654-.12311L65.03455,54.348l15.04419,7.86646c.037.01935.07611.032.11334.0506l-.7934,14.7356Z" fill="#ffffff" class="color000 svgShape"></path><path d="M76.69434 6.98865A14.86211 14.86211 0 0 0 67.333.37048a15.04467 15.04467 0 0 0-17.9541 11.31989A14.97078 14.97078 0 0 0 63.96973 29.99768 15.06437 15.06437 0 0 0 78.62109 18.30707 14.889 14.889 0 0 0 76.69434 6.98865zM74.7207 17.41748a11.04591 11.04591 0 0 1-13.17188 8.30914A10.96512 10.96512 0 0 1 53.2793 12.58 11.01391 11.01391 0 0 1 66.45117 4.27185 10.96467 10.96467 0 0 1 74.7207 17.41748zM66.7193 35.03247a1.99877 1.99877 0 0 0-.15179-.188c-.0351-.04034-.06708-.08386-.1048-.121-.04828-.0473-.10443-.088-.1582-.13092-.05212-.04163-.10223-.08557-.15778-.12158-.01141-.00745-.0202-.01727-.03186-.02454-.045-.02789-.09357-.04443-.14-.06854-.06085-.03168-.12048-.06488-.184-.09027a2.02866 2.02866 0 0 0-.195-.06189c-.06085-.01764-.12073-.03662-.183-.04858-.06714-.01288-.13409-.01813-.20166-.02435-.06409-.00592-.12744-.01288-.192-.013-.06476.00012-.12823.00708-.1925.01306-.067.00616-.13354.01141-.2002.02417-.06439.01233-.12628.03186-.18921.05023s-.12549.03479-.187.05927a2.077 2.077 0 0 0-.199.0976c-.04193.02216-.08612.037-.127.06232-.01056.00659-.01849.0155-.02887.02228a2.04016 2.04016 0 0 0-.17639.13593c-.04718.03851-.09735.07422-.14026.11621-.04163.04077-.077.08838-.11536.13318a1.9866 1.9866 0 0 0-.14331.1781c-.00635.00946-.01489.0166-.02112.02618L56.5282 45.46173l-7.51862 2.75653a1.98115 1.98115 0 0 0-1.19385 2.56665 2.03967 2.03967 0 0 0 1.90973 1.29431 2.0745 2.0745 0 0 0 .71594-.1275l8.15686-2.99066a2.0325 2.0325 0 0 0 1.0047-.79639l5.41663-8.32208 5.41669 8.32208a2.03262 2.03262 0 0 0 1.00464.79639l8.15692 2.99066a2.07416 2.07416 0 0 0 .71588.1275 2.03975 2.03975 0 0 0 1.90979-1.29431 1.9812 1.9812 0 0 0-1.19385-2.56665L73.511 45.46173 66.74017 35.05835C66.734 35.04889 66.72565 35.04181 66.7193 35.03247z" fill="#ffffff" class="color000 svgShape"></path></svg></g></svg>